<?xml version="1.0" encoding="UTF-8"?>
<!DOCTYPE svg PUBLIC "-//W3C//DTD SVG 1.1//EN" "http://www.w3.org/Graphics/SVG/1.1/DTD/svg11.dtd">
<!-- Creator: CorelDRAW 2019 (64-Bit) -->
<svg xmlns="http://www.w3.org/2000/svg" xml:space="preserve" width="732px" height="240px" version="1.1" style="shape-rendering:geometricPrecision; text-rendering:geometricPrecision; image-rendering:optimizeQuality; fill-rule:evenodd; clip-rule:evenodd"
viewBox="0 0 732 240.01"
 xmlns:xlink="http://www.w3.org/1999/xlink"
 xmlns:xodm="http://www.corel.com/coreldraw/odm/2003">
 <defs>
  <style type="text/css">
   <![CDATA[
    .fil2 {fill:#F3C800;fill-rule:nonzero}
    .fil1 {fill:#DB3537;fill-rule:nonzero}
    .fil0 {fill:#5E81C0;fill-rule:nonzero}
    .fil3 {fill:#41B04E;fill-rule:nonzero}
   ]]>
  </style>
 </defs>
 <g id="Layer_x0020_1">
  <metadata id="CorelCorpID_0Corel-Layer"/>
  <path class="fil0" d="M179.97 84.76l-85.42 0 0 25.35 60.58 0c-2.99,35.54 -32.56,50.7 -60.47,50.7 -35.72,0 -66.88,-28.1 -66.88,-67.48 0,-38.37 29.71,-67.91 66.95,-67.91 28.74,0 45.67,18.32 45.67,18.32l17.75 -18.38c0,0 -22.78,-25.36 -64.32,-25.36 -52.9,0 -93.83,44.65 -93.83,92.87 0,47.26 38.5,93.34 95.18,93.34 49.84,0 86.33,-34.15 86.33,-84.65 0,-10.65 -1.54,-16.81 -1.54,-16.81l0 0.01z"/>
  <path class="fil1" d="M250.29 89.91c17.23,0 33.56,13.94 33.56,36.39 0,21.98 -16.26,36.31 -33.64,36.31 -19.1,0 -34.18,-15.3 -34.18,-36.49 0,-20.73 14.89,-36.21 34.26,-36.21l0 0zm-0.35 -23.5c-35.05,0 -60.17,27.4 -60.17,59.35 0,32.43 24.36,60.34 60.58,60.34 32.78,0 59.64,-25.06 59.64,-59.64 0,-39.64 -31.24,-60.05 -60.05,-60.05l0 0z"/>
  <path class="fil2" d="M381.14 89.91c17.23,0 33.56,13.94 33.56,36.39 0,21.98 -16.26,36.31 -33.64,36.31 -19.1,0 -34.17,-15.3 -34.17,-36.49 0,-20.73 14.88,-36.21 34.25,-36.21l0 0zm-0.35 -23.5c-35.05,0 -60.17,27.4 -60.17,59.35 0,32.43 24.37,60.34 60.58,60.34 32.78,0 59.64,-25.06 59.64,-59.64 0,-39.64 -31.24,-60.05 -60.05,-60.05l0 0z"/>
  <path class="fil0" d="M511.46 89.93c15.77,0 31.97,13.47 31.97,36.47 0,23.37 -16.16,36.25 -32.32,36.25 -17.15,0 -33.1,-13.92 -33.1,-36.03 0,-22.98 16.57,-36.69 33.45,-36.69l0 0zm-2.33 -23.46c-32.17,0 -57.45,28.17 -57.45,59.8 0,36.02 29.31,59.91 56.9,59.91 17.06,0 26.13,-6.77 32.82,-14.54l0 11.8c0,20.65 -12.53,33.01 -31.46,33.01 -18.28,0 -27.45,-13.59 -30.64,-21.3l-23 9.61c8.16,17.25 24.59,35.25 53.83,35.25 31.99,0 56.37,-20.15 56.37,-62.4l0 -107.54 -25.1 0 0 10.13c-7.71,-8.31 -18.26,-13.73 -32.27,-13.73l0 0z"/>
  <path class="fil1" d="M679.11 89.34c10.94,0 18.8,5.82 22.15,12.79l-53.6 22.4c-2.31,-17.35 14.12,-35.19 31.45,-35.19l0 0zm-1.04 -23.02c-30.35,0 -55.83,24.15 -55.83,59.77 0,37.7 28.4,60.06 58.74,60.06 25.32,0 40.86,-13.86 50.14,-26.27l-20.69 -13.76c-5.37,8.33 -14.34,16.47 -29.32,16.47 -16.83,0 -24.57,-9.21 -29.36,-18.14l80.25 -33.29 -4.16 -9.76c-7.76,-19.11 -25.84,-35.07 -49.77,-35.07l0 -0.01z"/>
  <polygon class="fil3" points="583.98,182.59 610.34,182.59 610.34,6.19 583.98,6.19 "/>
 </g>
</svg>
