<?xml version="1.0" encoding="UTF-8"?>
<!DOCTYPE svg PUBLIC "-//W3C//DTD SVG 1.1//EN" "http://www.w3.org/Graphics/SVG/1.1/DTD/svg11.dtd">
<!-- Creator: CorelDRAW 2019 (64-Bit) -->
<svg xmlns="http://www.w3.org/2000/svg" xml:space="preserve" width="1100px" height="240px" version="1.1" style="shape-rendering:geometricPrecision; text-rendering:geometricPrecision; image-rendering:optimizeQuality; fill-rule:evenodd; clip-rule:evenodd"
viewBox="0 0 1100 239.99"
 xmlns:xlink="http://www.w3.org/1999/xlink"
 xmlns:xodm="http://www.corel.com/coreldraw/odm/2003">
 <defs>
  <style type="text/css">
   <![CDATA[
    .fil0 {fill:#0064D3}
    .fil1 {fill:#FEDD00}
   ]]>
  </style>
 </defs>
 <g id="Layer_x0020_1">
  <metadata id="CorelCorpID_0Corel-Layer"/>
  <path class="fil0" d="M71.86 158.13c-2.35,-2.17 -5.48,-3.5 -8.91,-3.5l-4.55 0c-3.24,0 -8.11,-4.41 -8.11,-8.08l0 -19.67 0 -12.41 0 -24.39 10.74 0c7.22,0 13.12,-5.9 13.12,-13.11l0 0c0,-7.22 -5.9,-13.12 -13.12,-13.12l-10.74 0 0 -17.86c0,-8.16 -6.67,-14.83 -14.83,-14.83 -8.15,0 -14.83,6.67 -14.83,14.83l0 17.86 -7.51 0c-7.22,0 -13.12,5.9 -13.12,13.12l0 0c0,7.21 5.9,13.11 13.12,13.11l7.51 0c0,21.9 0,42.32 0,64.21 -0.2,4.63 1.87,9.35 1.87,9.35 3.29,8.49 10.74,14.91 19.85,16.76 1.75,0.36 3.56,0.54 5.42,0.54l15.18 0c7.24,0 13.16,-5.92 13.16,-13.16 0,-2.61 -0.78,-5.06 -2.11,-7.12 -0.61,-0.93 -1.32,-1.78 -2.14,-2.53zm255.98 -30.21l-57.1 0c11.95,40.19 45.81,26.4 59.28,20.42 4.9,-2.18 15.91,3.31 14.59,12.46 -1.32,9.14 -13.14,13.14 -13.14,13.14 0,0 -15.01,6.18 -33.27,5.47 -33.25,-1.3 -56.96,-27.01 -57.97,-60.74 1.01,-33.74 26.6,-60.75 58.03,-60.75 48.9,0 76.48,70 43.34,70l-13.76 0zm0 -20.42c-2.48,-14.55 -14.47,-26.34 -28.55,-26.34 -14.09,0 -26.15,11.37 -28.55,26.34l57.1 0zm94.63 50.63c-2.35,-2.17 -5.49,-3.5 -8.92,-3.5l-4.55 0c-3.23,0 -8.1,-4.41 -8.1,-8.08l0 -19.67 0 -12.41 0 -24.39 10.74 0c7.21,0 13.11,-5.9 13.11,-13.11l0 0c0,-7.22 -5.9,-13.12 -13.11,-13.12l-10.74 0 0 -17.86c0,-8.16 -6.68,-14.83 -14.83,-14.83 -8.16,0 -14.83,6.67 -14.83,14.83l0 17.86 -7.52 0c-7.21,0 -13.12,5.9 -13.12,13.12l0 0c0,7.21 5.91,13.11 13.12,13.11l7.52 0c0,21.9 0,42.32 0,64.21 -0.21,4.63 1.87,9.35 1.87,9.35 3.29,8.49 10.73,14.91 19.84,16.76 1.75,0.36 3.57,0.54 5.42,0.54l15.18 0c7.24,0 13.16,-5.92 13.16,-13.16 0,-2.61 -0.77,-5.06 -2.11,-7.12 -0.6,-0.93 -1.32,-1.78 -2.13,-2.53zm-282.96 -83.31l0 89.25c0,8.16 6.67,14.83 14.83,14.83 8.16,0 14.83,-6.67 14.83,-14.83l0 -9.86 0 -5.06 13.26 -15.21 2 2.76 26.16 36.02c4.64,6.39 13.67,7.83 20.06,3.19 6.39,-4.64 7.82,-13.67 3.18,-20.06l-30.03 -41.37 26.87 -30.83c4.8,-5.51 4.22,-13.95 -1.29,-18.75 -5.51,-4.81 -13.94,-4.23 -18.75,1.28l-22.86 26.23 -18.6 21.34 0 -46.96 0 -34.23c0,-8.16 -6.67,-14.83 -14.83,-14.83 -8.15,0 -14.81,6.66 -14.83,14.8 0,0.01 0,0.02 0,0.03l0 42.26zm-36.21 -16.04l0 0c8.16,0 14.83,6.68 14.83,14.83l0 88.07c0,8.15 -6.67,14.82 -14.83,14.82l0 0c-8.15,0 -14.83,-6.67 -14.83,-14.82l0 -88.07c0,-8.15 6.68,-14.83 14.83,-14.83z"/>
  <path class="fil0" d="M731.92 118.26c0,-23.17 17.28,-41.95 38.59,-41.95 6.21,0 12.08,1.59 17.27,4.42 3.16,1.72 6.06,3.9 8.65,6.45 0.09,0.03 0.17,0.06 0.25,0.09 0.99,0.35 2.06,0.54 3.17,0.54 5.23,0 9.47,-4.24 9.47,-9.47 0,-1.73 -0.46,-3.35 -1.26,-4.74 -0.06,-0.1 -0.11,-0.2 -0.15,-0.3 -2.41,-2.28 -5.01,-4.35 -7.77,-6.18 -9.04,-6.03 -19.8,-9.52 -31.34,-9.52 -32.17,0 -58.26,27.16 -58.26,60.66 0,33.51 26.09,60.67 58.26,60.67 10.54,0 20.42,-2.91 28.94,-8.01 3.78,-2.25 7.3,-4.94 10.48,-7.99 0.02,-0.04 0.05,-0.09 0.07,-0.13 0.66,-1.3 1.03,-2.76 1.03,-4.31 0,-5.23 -4.24,-9.48 -9.47,-9.48 -1.42,0 -2.77,0.32 -3.98,0.88 -1.2,1.13 -2.46,2.19 -3.78,3.16 0,0 -0.01,0.01 -0.01,0.02 -0.1,0.13 -0.24,0.23 -0.43,0.3 -2.14,1.53 -4.43,2.83 -6.84,3.87 -4.42,1.92 -9.25,2.98 -14.3,2.98 -21.31,0 -38.59,-18.78 -38.59,-41.96zm231.57 -41.09l0 -7.31c0,-5.6 -4.58,-10.18 -10.18,-10.18 -5.6,0 -10.18,4.58 -10.18,10.18l0 96.77c0,5.6 4.58,10.18 10.18,10.18 5.6,0 10.18,-4.58 10.18,-10.18l0 -74.69c13.56,-15.29 38.05,-26.87 46.84,0l0 74.69c0,5.6 4.58,10.18 10.18,10.18 5.6,0 10.18,-4.58 10.18,-10.18l0 -74.69c19.86,-19.95 38.18,-22.17 48.96,0l0 74.69c0,5.6 4.58,10.18 10.17,10.18 5.6,0 10.18,-4.58 10.18,-10.18l0 -81.53c-2.79,-11.66 -8.8,-19.27 -16.33,-23.33 -16.13,-8.71 -39.3,-1.12 -52.98,17.95 -0.94,-2.88 -2.15,-5.46 -3.59,-7.74 -12.66,-20.04 -43.18,-17.16 -63.61,5.19zm-88.68 -19.57c32.18,0 58.26,27.16 58.26,60.66 0,33.51 -26.08,60.67 -58.26,60.67 -32.17,0 -58.26,-27.16 -58.26,-60.67 0,-33.5 26.09,-60.66 58.26,-60.66zm-0.26 18.71c20.08,0 36.37,18.78 36.37,41.95 0,23.18 -16.29,41.96 -36.37,41.96 -20.09,0 -36.38,-18.78 -36.38,-41.96 0,-23.17 16.29,-41.95 36.38,-41.95z"/>
  <path class="fil1" d="M568.66 0c66.27,0 119.99,53.72 119.99,120 0,66.27 -53.72,119.99 -119.99,119.99 -66.28,0 -120,-53.72 -120,-119.99 0,-66.28 53.72,-120 120,-120z"/>
 </g>
</svg>
